<mxfile host="app.diagrams.net" agent="Mozilla/5.0 (X11; Linux x86_64; rv:139.0) Gecko/20100101 Firefox/139.0" version="27.2.0">
  <diagram name="Página-1" id="qUEdMthaPQ8Ha0wdSSVb">
    <mxGraphModel dx="1426" dy="727" grid="1" gridSize="10" guides="1" tooltips="1" connect="1" arrows="1" fold="1" page="1" pageScale="1" pageWidth="827" pageHeight="1169" math="0" shadow="0">
      <root>
        <mxCell id="0" />
        <mxCell id="1" parent="0" />
        <mxCell id="UfqM3yECqD4lE5jCGR6n-7" value="PCL_back" style="swimlane;fontStyle=0;childLayout=stackLayout;horizontal=1;startSize=30;horizontalStack=0;resizeParent=1;resizeParentMax=0;resizeLast=0;collapsible=1;marginBottom=0;whiteSpace=wrap;html=1;" vertex="1" parent="1">
          <mxGeometry x="340" y="440" width="140" height="90" as="geometry" />
        </mxCell>
        <mxCell id="UfqM3yECqD4lE5jCGR6n-8" value="Sintaxe" style="text;strokeColor=none;fillColor=none;align=left;verticalAlign=middle;spacingLeft=4;spacingRight=4;overflow=hidden;points=[[0,0.5],[1,0.5]];portConstraint=eastwest;rotatable=0;whiteSpace=wrap;html=1;" vertex="1" parent="UfqM3yECqD4lE5jCGR6n-7">
          <mxGeometry y="30" width="140" height="30" as="geometry" />
        </mxCell>
        <mxCell id="UfqM3yECqD4lE5jCGR6n-9" value="Semântica" style="text;strokeColor=none;fillColor=none;align=left;verticalAlign=middle;spacingLeft=4;spacingRight=4;overflow=hidden;points=[[0,0.5],[1,0.5]];portConstraint=eastwest;rotatable=0;whiteSpace=wrap;html=1;" vertex="1" parent="UfqM3yECqD4lE5jCGR6n-7">
          <mxGeometry y="60" width="140" height="30" as="geometry" />
        </mxCell>
        <mxCell id="UfqM3yECqD4lE5jCGR6n-11" value="" style="shape=curlyBracket;whiteSpace=wrap;html=1;rounded=1;flipH=1;labelPosition=right;verticalLabelPosition=middle;align=left;verticalAlign=middle;" vertex="1" parent="1">
          <mxGeometry x="510" y="440" width="20" height="85" as="geometry" />
        </mxCell>
        <mxCell id="UfqM3yECqD4lE5jCGR6n-13" value="&lt;div align=&quot;left&quot;&gt;instrumentada para&amp;nbsp;&lt;/div&gt;&lt;div align=&quot;left&quot;&gt;identificar e classificar&lt;/div&gt;&lt;div align=&quot;left&quot;&gt;erros de memória em&lt;/div&gt;&lt;div align=&quot;left&quot;&gt;programas arbitrários&lt;/div&gt;" style="text;html=1;align=left;verticalAlign=middle;resizable=0;points=[];autosize=1;strokeColor=none;fillColor=none;" vertex="1" parent="1">
          <mxGeometry x="550" y="447.5" width="140" height="70" as="geometry" />
        </mxCell>
        <mxCell id="UfqM3yECqD4lE5jCGR6n-20" style="edgeStyle=orthogonalEdgeStyle;rounded=0;orthogonalLoop=1;jettySize=auto;html=1;exitX=0.5;exitY=1;exitDx=0;exitDy=0;entryX=0.5;entryY=0;entryDx=0;entryDy=0;shape=arrow;" edge="1" parent="1" source="UfqM3yECqD4lE5jCGR6n-14" target="UfqM3yECqD4lE5jCGR6n-7">
          <mxGeometry relative="1" as="geometry" />
        </mxCell>
        <mxCell id="UfqM3yECqD4lE5jCGR6n-14" value="PCL_front" style="swimlane;fontStyle=0;childLayout=stackLayout;horizontal=1;startSize=30;horizontalStack=0;resizeParent=1;resizeParentMax=0;resizeLast=0;collapsible=1;marginBottom=0;whiteSpace=wrap;html=1;" vertex="1" parent="1">
          <mxGeometry x="340" y="268" width="140" height="90" as="geometry" />
        </mxCell>
        <mxCell id="UfqM3yECqD4lE5jCGR6n-15" value="Sintaxe" style="text;strokeColor=none;fillColor=none;align=left;verticalAlign=middle;spacingLeft=4;spacingRight=4;overflow=hidden;points=[[0,0.5],[1,0.5]];portConstraint=eastwest;rotatable=0;whiteSpace=wrap;html=1;" vertex="1" parent="UfqM3yECqD4lE5jCGR6n-14">
          <mxGeometry y="30" width="140" height="30" as="geometry" />
        </mxCell>
        <mxCell id="UfqM3yECqD4lE5jCGR6n-16" value="Sistema de Tipos" style="text;strokeColor=none;fillColor=none;align=left;verticalAlign=middle;spacingLeft=4;spacingRight=4;overflow=hidden;points=[[0,0.5],[1,0.5]];portConstraint=eastwest;rotatable=0;whiteSpace=wrap;html=1;" vertex="1" parent="UfqM3yECqD4lE5jCGR6n-14">
          <mxGeometry y="60" width="140" height="30" as="geometry" />
        </mxCell>
        <mxCell id="UfqM3yECqD4lE5jCGR6n-22" value="Compilação" style="text;html=1;align=center;verticalAlign=middle;whiteSpace=wrap;rounded=0;" vertex="1" parent="1">
          <mxGeometry x="340" y="380" width="60" height="30" as="geometry" />
        </mxCell>
        <mxCell id="UfqM3yECqD4lE5jCGR6n-23" value="" style="shape=curlyBracket;whiteSpace=wrap;html=1;rounded=1;flipH=1;labelPosition=right;verticalLabelPosition=middle;align=left;verticalAlign=middle;" vertex="1" parent="1">
          <mxGeometry x="509" y="310" width="20" height="85" as="geometry" />
        </mxCell>
        <mxCell id="UfqM3yECqD4lE5jCGR6n-24" value="&lt;div&gt;projetada para evitar erros&lt;/div&gt;&lt;div&gt;de memória durante a avaliação&lt;/div&gt;&lt;div&gt;da compilação&amp;nbsp;de um programa&lt;/div&gt;&lt;div&gt;bem-tipado&lt;/div&gt;" style="text;html=1;align=left;verticalAlign=middle;resizable=0;points=[];autosize=1;strokeColor=none;fillColor=none;" vertex="1" parent="1">
          <mxGeometry x="549" y="317.5" width="190" height="70" as="geometry" />
        </mxCell>
      </root>
    </mxGraphModel>
  </diagram>
</mxfile>
